<?xml version="1.0" standalone="no"?>
<!DOCTYPE svg PUBLIC "-//W3C//DTD SVG 20010904//EN"
 "http://www.w3.org/TR/2001/REC-SVG-20010904/DTD/svg10.dtd">
<svg version="1.0" xmlns="http://www.w3.org/2000/svg"
 width="605.000000pt" height="606.000000pt" viewBox="0 0 605.000000 606.000000"
 preserveAspectRatio="xMidYMid meet" >

<g transform="translate(0.000000,606.000000) scale(0.100000,-0.100000)"
fill="#9B9B9B" stroke="#9B9B9B" stroke-width="5">
<path d="M2752 5784 c-377 -46 -702 -148 -1015 -321 -308 -170 -570 -385 -795
-653 -347 -415 -564 -915 -633 -1460 -17 -136 -17 -504 0 -640 114 -906 639
-1679 1436 -2117 266 -147 595 -258 900 -304 202 -30 534 -37 720 -14 347 42
627 125 930 275 161 80 381 216 422 261 30 32 53 91 53 131 -1 50 -19 84 -249
458 -232 377 -269 424 -345 435 -64 10 -94 0 -192 -62 -180 -112 -340 -180
-532 -224 -113 -26 -398 -37 -510 -20 -360 57 -640 199 -889 453 -217 221
-365 521 -412 835 -14 93 -14 333 0 426 91 609 538 1104 1129 1252 165 41 237
48 422 42 304 -10 521 -80 811 -261 120 -76 198 -74 274 7 33 34 443 694 474
762 32 68 18 146 -34 204 -43 47 -264 183 -432 266 -300 147 -577 229 -915
270 -153 18 -461 18 -618 -1z m460 -374 c275 -19 544 -82 783 -185 129 -55
315 -153 315 -164 0 -6 -217 -361 -226 -370 -2 -2 -57 21 -122 52 -255 119
-473 172 -752 183 -754 29 -1439 -383 -1783 -1071 -66 -134 -139 -365 -167
-535 -18 -111 -24 -355 -11 -484 21 -198 97 -469 178 -630 172 -343 433 -626
751 -813 334 -196 711 -284 1100 -255 253 18 458 72 685 179 64 31 119 54 121
52 9 -10 216 -349 221 -361 13 -32 -349 -202 -557 -263 -586 -171 -1200 -121
-1728 141 -647 321 -1105 889 -1275 1584 -46 186 -65 353 -65 560 0 379 77
712 245 1055 311 634 919 1116 1602 1270 179 40 255 50 505 64 14 0 95 -4 180
-9z"/>
<path d="M2764 4171 c-18 -5 -46 -18 -64 -31 -47 -33 -705 -1023 -713 -1073
-13 -81 -6 -93 344 -619 278 -417 346 -512 381 -535 l42 -28 480 0 c463 0 482
1 515 20 71 42 113 126 103 208 -2 15 -59 112 -127 215 l-125 187 883 5 882 5
68 27 c207 83 327 258 327 478 0 218 -121 395 -326 478 l-69 27 -882 5 -883 5
125 187 c68 103 125 200 127 215 10 82 -32 166 -103 208 -33 19 -54 20 -494
22 -253 1 -474 -2 -491 -6z m526 -386 c0 -3 -49 -79 -109 -169 -127 -189 -147
-238 -131 -306 14 -57 59 -114 108 -138 34 -16 121 -17 1094 -22 l1058 -5 32
-33 c28 -28 33 -39 33 -82 0 -43 -5 -54 -33 -82 l-32 -33 -1058 -5 c-973 -5
-1060 -6 -1094 -22 -49 -24 -94 -81 -108 -138 -16 -68 4 -117 131 -306 60 -90
109 -166 109 -169 0 -3 -85 -5 -188 -5 l-189 0 -253 380 -253 380 253 380 253
380 189 0 c103 0 188 -2 188 -5z"/>
</g>
</svg>
