<?xml version="1.0" standalone="no"?>
<!DOCTYPE svg PUBLIC "-//W3C//DTD SVG 20010904//EN"
 "http://www.w3.org/TR/2001/REC-SVG-20010904/DTD/svg10.dtd">
<svg version="1.0" xmlns="http://www.w3.org/2000/svg"
 width="50.000000pt" height="50.000000pt" viewBox="0 0 50.000000 50.000000"
 preserveAspectRatio="xMidYMid meet" >

<g transform="translate(0.000000,50.000000) scale(0.100000,-0.100000)"
fill="#9B9B9B" stroke="#9B9B9B" stroke-width="15">
<path d="M60 260 l0 -220 130 0 c80 0 130 4 130 10 0 6 -47 10 -120 10 l-120
0 0 200 0 200 170 0 170 0 0 -120 c0 -73 4 -120 10 -120 6 0 10 50 10 130 l0
130 -190 0 -190 0 0 -220z"/>
<path d="M140 380 c0 -6 43 -10 110 -10 67 0 110 4 110 10 0 6 -43 10 -110 10
-67 0 -110 -4 -110 -10z"/>
<path d="M140 250 c0 -5 9 -10 20 -10 11 0 20 5 20 10 0 6 -9 10 -20 10 -11 0
-20 -4 -20 -10z"/>
<path d="M210 250 c0 -6 32 -10 75 -10 43 0 75 4 75 10 0 6 -32 10 -75 10 -43
0 -75 -4 -75 -10z"/>
<path d="M140 190 c0 -5 9 -10 20 -10 11 0 20 5 20 10 0 6 -9 10 -20 10 -11 0
-20 -4 -20 -10z"/>
<path d="M210 190 c0 -5 20 -10 45 -10 25 0 45 5 45 10 0 6 -20 10 -45 10 -25
0 -45 -4 -45 -10z"/>
<path d="M320 190 c0 -5 5 -10 10 -10 6 0 10 -10 10 -22 0 -12 7 -30 17 -40
15 -17 15 -19 0 -36 -10 -10 -17 -28 -17 -40 0 -12 -4 -22 -10 -22 -5 0 -10
-4 -10 -10 0 -6 37 -10 90 -10 53 0 90 4 90 10 0 6 -4 10 -10 10 -5 0 -10 10
-10 22 0 12 -7 30 -17 40 -15 17 -15 19 0 36 10 10 17 28 17 40 0 12 5 22 10
22 6 0 10 5 10 10 0 6 -37 10 -90 10 -53 0 -90 -4 -90 -10z m140 -30 c0 -10
-10 -28 -22 -40 l-22 -20 22 -20 c22 -20 30 -60 13 -60 -5 0 -16 10 -25 22
l-16 23 -16 -22 c-9 -13 -20 -23 -25 -23 -17 0 -9 34 13 57 l21 23 -21 23
c-38 40 -29 57 28 57 43 0 50 -3 50 -20z"/>
<path d="M393 133 c16 -16 18 -16 34 0 16 16 15 17 -17 17 -32 0 -33 -1 -17
-17z"/>
<path d="M140 130 c0 -5 9 -10 20 -10 11 0 20 5 20 10 0 6 -9 10 -20 10 -11 0
-20 -4 -20 -10z"/>
<path d="M210 130 c0 -6 27 -10 61 -10 37 0 58 4 54 10 -3 6 -31 10 -61 10
-30 0 -54 -4 -54 -10z"/>
</g>
</svg>
